<svg width="200" height="79" viewBox="0 0 200 79" xmlns="http://www.w3.org/2000/svg"><defs><linearGradient x1="50.009%" y1="100.061%" x2="50.009%" y2=".013%" id="a"><stop stop-color="#007881" offset="5%"/><stop stop-color="#00666E" offset="14.6%"/><stop stop-color="#00555B" offset="24.8%"/><stop stop-color="#00494F" offset="33.3%"/><stop stop-color="#00454B" offset="38.8%"/><stop stop-color="#00484E" offset="45%"/><stop stop-color="#005158" offset="53.1%"/><stop stop-color="#005F67" offset="62.3%"/><stop stop-color="#00646C" offset="65%"/><stop stop-color="#008993" offset="95%"/></linearGradient><linearGradient x1="50.026%" y1=".128%" x2="50.026%" y2="99.855%" id="b"><stop stop-color="#00838D" offset="0%"/><stop stop-color="#00363C" offset="100%"/></linearGradient></defs><g fill="none" fill-rule="evenodd"><path d="M199.8 40.8c0 7.3-.9 18.3-4.8 25-4.4 7.3-12.9 12.4-22.8 12.4H27.6c-9.9 0-18.4-5.1-22.8-12.4C.9 59.1 0 48.1 0 40.8c0-7.3.9-18.3 4.8-25C9.2 8.5 17.6 3.4 27.6 3.4h144.7c9.9 0 18.4 5.1 22.8 12.4 3.9 6.7 4.7 17.7 4.7 25z" fill="url(#a)"/><path d="M29.4 10c-5.8 0-12.5 2.8-16.1 6.6-5.6 6-6.8 15.3-6.8 24.2 0 8.9 1.2 18.3 6.8 24.2 3.5 3.8 10.3 6.6 16.1 6.6H104V10H29.4zM130 23c-14 0-17 4.3-17 17.8 0 13.1 3.2 17.7 17 17.7 5.1 0 9.4-.4 12.3-2 2.8-1.6 4.5-4.4 4.6-9.4h-10.7c-.2 3.7-2.8 4.1-6.2 4.1-5.1 0-6.1-2.1-6.1-8.4v-.4h23v-1.6c0-14.3-3.8-17.8-16.9-17.8zm6 13.7h-12.2c.1-4.8 1-6.4 5.9-6.4 4 0 6.3.4 6.3 6v.4zm17.8-13.6v8h8.1v27.4H173V31.1h8.1v-8h-27.3z" fill="#FFF"/><path d="M80 36.6c-6-.1-6.3-1.4-6.3-3.4 0-2.4.3-3.1 6.3-3.1 2.2 0 4.5.2 5 3h10.4v-1.4c0-8.4-8.8-8.5-15.4-8.5-9.9 0-17.1.2-17.1 11.3 0 7 2.4 10.3 17.1 10.3 1.3 0 3.4-.1 4.7.5 1.1.5 1.7 1.5 1.7 3.3 0 3-1.1 3.4-6.3 3.4-2.9 0-5.9-.1-6-4H62.9c.1 7.7 3.7 10.3 10.5 10.8 2.1.2 4.3.1 6.6.1 9.3 0 17.1-1.6 17.1-11.7 0-9.7-5.1-10.3-17.1-10.6zM38.5 23.1c-14.1 0-17.1 4.4-17.1 17.9 0 13.1 3.3 17.8 17.1 17.8 5.1 0 9.4-.4 12.4-2.1 2.9-1.7 4.6-4.5 4.7-9.6H44.7c-.1 3.7-2.7 4.1-6.1 4.1-5 0-6-2-6-8.3v-.3h23V41c0-14.3-3.9-17.9-17.1-17.9zm6 13.8h-12c.1-4.7 1.1-6.1 5.8-6.1 4 0 6.1.4 6.1 5.9.1-.1.1.2.1.2z" fill="url(#b)"/><path d="M193.4 7.5c-1.7 0-3.9-.9-3.9-3.7 0-2.4 1.7-3.8 3.9-3.8 1.9 0 3.9 1 3.9 3.8 0 2.4-1.8 3.7-3.9 3.7zm0-6.8c-1.7 0-3.1.9-3.1 3 0 2.6 2.2 3.1 3.2 3.1 1.7 0 3-1.1 3-3 0-2.2-1.6-3.1-3.1-3.1zm1.9 5c-.5 0-.9-.1-1.2-.5-.4-.4-.7-.9-.9-1.2h-.6v1.5h-.8v-4h1.5c.8 0 1.4.4 1.4 1.3 0 .5-.3.9-.8 1.1.1.2.4.6.6.8.2.2.5.3.8.4v.6zm-2-3.6h-.6v1.4h.5c.6 0 .9-.2.9-.7 0-.5-.2-.7-.8-.7z" fill="#00646C"/></g></svg>