<?xml version="1.0" encoding="utf-8"?>
<!-- Generator: Adobe Illustrator 23.0.0, SVG Export Plug-In . SVG Version: 6.00 Build 0)  -->
<svg version="1.1" id="Vrstva_1" xmlns="http://www.w3.org/2000/svg" xmlns:xlink="http://www.w3.org/1999/xlink" x="0px" y="0px"
	 viewBox="0 0 600 400" style="enable-background:new 0 0 600 400;" xml:space="preserve">
<path d="M82.17,59.29v48.87c0,5.63,0.85,9.48,2.56,11.57s4.63,3.13,8.78,3.13h71.29v31.44H95.7c-2.08-0.06-4.16,0.06-6.22,0.36
	c-1.93,0.38-3.67,1.42-4.93,2.93c-1.59,1.71-2.39,4.38-2.38,8v66.91v5.64c-0.03,4.94,3.94,8.97,8.88,9c0.02,0,0.03,0,0.05,0h81.4
	v33.66h-102c-11.29,0.03-20.47-9.09-20.5-20.38c0-0.02,0-0.04,0-0.06V40.93c0-11.29,9.15-20.44,20.44-20.44l0,0h99.11v30H91.1
	c-4.89,0-8.87,3.93-8.93,8.82V59.29z"/>
<path d="M184.36,379.51V202.19c0-25.83,8.29-46.42,24.86-61.78c15.33-14.14,34.71-21.21,58.13-21.21c22.42,0,41.49,8.1,57.22,24.31
	c15.73,16.21,23.59,35.77,23.58,58.68c0,22.43-7.8,41.43-23.4,57c-15.6,15.57-34.73,23.37-57.4,23.4c-14.38,0-26.57-2.2-36.56-6.59
	c-3.75-1.82-7.31-4.02-10.6-6.58c-2.44-0.73-4.21,0.24-5.3,2.93c-1.14,2.91-1.7,6.01-1.65,9.14v98L184.36,379.51z M267.36,145.16
	c-15.11,0-28.21,5.42-39.3,16.27s-16.63,23.95-16.64,39.3c0,15.33,5.48,28.5,16.45,39.49s24.13,16.48,39.49,16.45
	c15.33,0,28.43-5.55,39.3-16.64c10.87-11.09,16.29-24.56,16.27-40.4c0.22-14.57-5.68-28.56-16.27-38.57
	C295.81,150.46,282.7,145.16,267.36,145.16L267.36,145.16z"/>
<path d="M383.43,186.84v94h-24.86V20.49h26v98.68c-0.11,2.78,0.2,5.56,0.91,8.25c0.6,1.83,1.88,2.13,3.84,0.92
	c3.66-1.95,9.87-4.09,18.64-6.4c8.35-2.25,16.95-3.42,25.6-3.47c5.59-0.1,11.17,0.45,16.63,1.64c4.97,1.28,9.71,3.3,14.08,6
	c10,6.34,17.49,13.65,22.48,21.93c4.99,8.28,7.49,18.15,7.5,29.62V280.8h-27.83v-90.67c0-12.67-2.92-23.27-8.77-31.81
	c-6.83-9.75-15.97-14.62-27.42-14.62c-11.7,0-22.43,4.14-32.18,12.43C388.3,164.42,383.42,174.65,383.43,186.84z"/>
<path d="M550,314.08c0.06,4.95-1.92,9.71-5.48,13.16c-3.56,3.62-8.45,5.6-13.52,5.49c-10.3-0.24-18.45-8.78-18.21-19.08
	c0.23-9.96,8.25-17.98,18.21-18.21c5.01-0.14,9.86,1.7,13.53,5.11C548.18,303.96,550,308.47,550,314.08z M544.15,116.62v164.16h-27
	V116.62H544.15z"/>
</svg>
