<?xml version="1.0" encoding="utf-8"?>
<!-- Generator: Adobe Illustrator 23.0.0, SVG Export Plug-In . SVG Version: 6.00 Build 0)  -->
<svg version="1.1" id="Vrstva_1" xmlns="http://www.w3.org/2000/svg" xmlns:xlink="http://www.w3.org/1999/xlink" x="0px" y="0px"
	 viewBox="0 0 300 420" style="enable-background:new 0 0 300 420;" xml:space="preserve">
<style type="text/css">
	.st0{fill:#010101;}
	.st1{fill:#1572B6;}
	.st2{fill:#33A9DC;}
	.st3{fill:#FFFFFF;}
	.st4{fill:#EBEBEB;}
</style>
<g>
	<path class="st0" d="M234.16,15.68h-24.69l25.67,27.86V56.8h-52.88V41.27h25.67l-25.67-27.86V0.13h51.9V15.68L234.16,15.68z
		 M171.79,15.68H147.1l25.67,27.86V56.8h-52.88V41.27h25.67l-25.67-27.86V0.13h51.9L171.79,15.68L171.79,15.68z M110.02,16.31H83.38
		v24.31h26.64V56.8H64.44V0.14h45.57V16.31z"/>
</g>
<polygon class="st1" points="28.14,386.29 1.07,82.67 298.52,82.67 271.42,386.24 149.61,420.01 "/>
<polygon class="st2" points="149.8,394.2 248.22,366.91 271.38,107.5 149.8,107.5 "/>
<g>
	<polygon class="st3" points="149.8,217.5 199.07,217.5 202.47,179.36 149.8,179.36 149.8,142.13 149.93,142.13 243.17,142.13
		242.28,152.12 233.13,254.73 149.8,254.73 	"/>
	<polygon class="st4" points="150.02,314.2 149.86,314.25 108.39,303.05 105.73,273.35 85.58,273.35 68.35,273.35 73.57,331.82
		149.85,353 150.02,352.95 	"/>
	<polygon class="st3" points="195.91,253.16 191.42,303.03 149.89,314.24 149.89,352.98 226.23,331.82 226.79,325.53 233.27,253.16
			"/>
	<polygon class="st4" points="149.93,142.13 149.93,165.25 149.93,179.27 149.93,179.36 60.1,179.36 60.1,179.36 59.98,179.36
		59.23,170.99 57.54,152.12 56.64,142.13 	"/>
	<polygon class="st4" points="149.8,217.5 149.8,240.63 149.8,254.65 149.8,254.74 108.97,254.74 108.97,254.74 108.85,254.74
		108.1,246.37 106.41,227.49 105.52,217.5 	"/>
</g>
</svg>
