<?xml version="1.0" encoding="utf-8"?>
<!-- Generator: Adobe Illustrator 23.0.3, SVG Export Plug-In . SVG Version: 6.00 Build 0)  -->
<svg version="1.1" id="Vrstva_1" xmlns="http://www.w3.org/2000/svg" xmlns:xlink="http://www.w3.org/1999/xlink" x="0px" y="0px"
	 viewBox="0 0 200 200" style="enable-background:new 0 0 200 200;" xml:space="preserve">
<style type="text/css">
	.st0{stroke:#000000;stroke-miterlimit:10;}
	.st1{fill:#FFFFFF;}
</style>
<circle class="st0" cx="101" cy="100" r="99.5"/>
<path class="st1" d="M155.71,46.67l-23.97-5.53c-2.6-0.6-5.28,0.76-6.34,3.2l-11.06,25.81c-0.97,2.26-0.32,4.91,1.59,6.45
	l13.97,11.43c-8.3,17.68-22.79,32.38-40.84,40.84l-11.43-13.97c-1.57-1.91-4.19-2.56-6.45-1.59l-25.81,11.06
	c-2.47,1.08-3.83,3.76-3.23,6.36l5.53,23.97c0.58,2.49,2.79,4.29,5.39,4.29c59.02,0,106.94-47.82,106.94-106.94
	C159.99,49.48,158.22,47.25,155.71,46.67z"/>
</svg>
