<?xml version="1.0" encoding="utf-8"?>
<!-- Generator: Adobe Illustrator 23.0.0, SVG Export Plug-In . SVG Version: 6.00 Build 0)  -->
<svg version="1.1" id="Vrstva_1" xmlns="http://www.w3.org/2000/svg" xmlns:xlink="http://www.w3.org/1999/xlink" x="0px" y="0px"
	 viewBox="0 0 180 160" style="enable-background:new 0 0 180 160;" xml:space="preserve">
<g>
	<path d="M172.45,52.23"/>
	<g>
		<path d="M126.49,21.24c0,0,33.01,14.31,39.18,22.27c0,0-16.46-35.34-62.45-40.01c0,0-14.45-2.26-32.49,3.03
			c-11.08,3.25-23.5,9.34-34.76,20.56c0,0-44.36,43.23-9.13,97.83c0,0,21.62,28.69,44.56,31.88c0,0,8.09,0.79,14.15-1.24
			c6.8-2.28,11.21-9.28,11.21-14.76c0-2.49,0.17-3.23-0.48-5.64c-2.02-7.4-3.24-8.07-6.46-11.62c-4.6-5.08-9.78-8.36-14.45-12.75
			c-4.7-4.42-8.79-8.62-12.13-12.34c-4.2-4.69-7.22-8.64-8.76-11.38c-11.87-21.12-9.5-51.31,4.19-66.8c0,0,8.47-11.13,12.91-13.48
			C71.6,6.81,114.85-1.99,126.49,21.24z"/>
		<path d="M64.26,46.66c0,0-5.38,13.07-1,51.8l6.13,6.49c0,0-3.44-6.97,1.4-17.14C70.79,87.81,57.97,60.21,64.26,46.66z"/>
		<path d="M13.26,36.01c0,0-15.56,29.92-7.33,68.93l20.92,19.99l-7.16-13.29C19.68,111.65-8.94,75.95,13.26,36.01z"/>
		<path d="M172.94,84.51c0,0-13.23-6.69-6.21,17.76c0,0-1.21,4.26-10.89,6c0,0,24.19,16.67-33.87,47.63c0,0,45.96-19.93,46.44-52.67
			C168.43,103.24,178.76,90.57,172.94,84.51z"/>
	</g>
</g>
</svg>
