<?xml version="1.0" encoding="utf-8"?>
<!-- Generator: Adobe Illustrator 23.0.0, SVG Export Plug-In . SVG Version: 6.00 Build 0)  -->
<svg version="1.1" id="Vrstva_1" xmlns="http://www.w3.org/2000/svg" xmlns:xlink="http://www.w3.org/1999/xlink" x="0px" y="0px"
	 viewBox="0 0 16 16" style="enable-background:new 0 0 16 16;" xml:space="preserve">
<style type="text/css">
	.st0{fill:#030104;}
</style>
<g>
	<g id="Layer_1_107_">
		<g>
			<path class="st0" d="M13.81,1.48c-0.12-0.14-0.29-0.22-0.48-0.22H4.62L4.5,0.53C4.45,0.22,4.18,0,3.88,0H2.46
				C2.11,0,1.83,0.28,1.83,0.63s0.28,0.63,0.63,0.63h0.88L4.51,8.3c0.01,0.03,0.02,0.05,0.03,0.08c0.01,0.03,0.02,0.06,0.03,0.1
				C4.6,8.51,4.62,8.55,4.65,8.58c0.02,0.02,0.04,0.05,0.06,0.07c0.04,0.03,0.08,0.06,0.12,0.08C4.86,8.75,4.88,8.77,4.9,8.78
				c0.07,0.03,0.15,0.05,0.23,0.05c0,0,6.93,0,6.93,0c0.35,0,0.63-0.28,0.63-0.63c0-0.35-0.28-0.63-0.63-0.63h-6.4l-0.1-0.63h7.13
				c0.31,0,0.58-0.23,0.62-0.54l0.63-4.41C13.98,1.8,13.93,1.62,13.81,1.48z M12.6,2.52l-0.18,1.26h-2.25V2.52H12.6z M9.55,2.52
				v1.26H7.66V2.52H9.55z M9.55,4.41v1.26H7.66V4.41H9.55z M7.03,2.52v1.26H5.14c-0.03,0-0.06,0.01-0.09,0.02L4.83,2.52H7.03z
				 M5.15,4.41h1.88v1.26H5.36L5.15,4.41z M10.18,5.67V4.41h2.15l-0.18,1.26H10.18z"/>
			<circle class="st0" cx="6.08" cy="10.4" r="0.95"/>
			<circle class="st0" cx="11.76" cy="10.4" r="0.95"/>
		</g>
	</g>
	<rect x="11.02" y="7.56" class="st0" width="1.68" height="1.26"/>
</g>
<rect x="1.83" class="st0" width="1.09" height="1.26"/>
<path class="st0" d="M-6.35,4.97"/>
</svg>
