<?xml version="1.0" encoding="utf-8"?>
<!-- Generator: Adobe Illustrator 23.0.1, SVG Export Plug-In . SVG Version: 6.00 Build 0)  -->
<svg version="1.1" id="Vrstva_1" xmlns="http://www.w3.org/2000/svg" xmlns:xlink="http://www.w3.org/1999/xlink" x="0px" y="0px"
	 viewBox="0 0 443.25 124.2" style="enable-background:new 0 0 443.25 124.2;" xml:space="preserve">
<style type="text/css">
	.st0{fill:#FFFFFF;}
	.st1{fill:#76B949;}
	.st2{fill:#231F20;}
</style>
<g>
	<path class="st0" d="M128.1,11.3c-15.07-15.06-39.5-15.06-54.54,0l-3.86,3.86l-3.85-3.86C50.77-3.77,26.36-3.77,11.3,11.3
		c-15.06,15.06-15.06,39.48,0,54.54l58.37,58.37l0.03-0.02l0.01,0.02l58.39-58.37C143.14,50.78,143.14,26.36,128.1,11.3"/>
	<path class="st1" d="M128.1,11.3c-15.07-15.06-39.5-15.06-54.54,0l-0.58,0.56c2.9-1.16,7.59-0.44,11.88,3.87
		c4.6,4.59,25.73,25.72,25.73,25.72l-7.22,7.22L69.77,15.06l-0.07,0.1l-3.85-3.86C50.77-3.77,26.36-3.77,11.3,11.3
		c-15.06,15.06-15.06,39.48,0,54.54l5.64,5.64c-1.46-4.38-0.78-9.34,3.89-14c4.59-4.59,24.66-24.67,24.66-24.67l7.23,7.21
		c0,0-20.93,20.93-24.67,24.66c-5.68,5.67-6.68,9.65-6.86,11.07l48.48,48.47l0.03-0.02l0.01,0.02l42.11-42.09
		c-4.14,2.55-10.23,2.34-13.78,2.34c-6.49,0-28.72,0-28.72,0l0-10.21c0,0,34.68,0,39.98,0c5.39,0,10.43-1.43,14.27-3.9l4.54-4.51
		C143.14,50.78,143.14,26.36,128.1,11.3"/>
	<polyline class="st2" points="161.04,16.65 164.73,16.65 186.7,44.59 186.7,16.65 190.53,16.65 190.53,51.54 187.41,51.54 
		164.88,22.92 164.88,51.54 161.04,51.54 161.04,16.65 	"/>
	<path class="st2" d="M212.14,16.39h3.71l15.87,35.15h-4.23l-4.09-9.23h-18.99l-4.12,9.23h-4.04L212.14,16.39 M221.86,38.78
		l-7.92-17.8l-7.96,17.8H221.86z"/>
	<path class="st2" d="M237.06,16.65h12.1c10.99,0,18.54,7.53,18.54,17.34v0.11c0,9.8-7.54,17.44-18.54,17.44h-12.1V16.65
		 M249.16,47.9c8.83,0,14.45-5.99,14.45-13.72V34.1c0-7.74-5.63-13.82-14.45-13.82H241V47.9H249.16z"/>
	<path class="st2" d="M285.47,16.39h3.69l15.91,35.15h-4.23l-4.1-9.23h-18.99l-4.14,9.23h-4.02L285.47,16.39 M295.2,38.78
		l-7.93-17.8l-7.97,17.8H295.2z"/>
	<path class="st2" d="M307.18,34.19V34.1c0-9.88,7.37-18.04,17.66-18.04c6.31,0,10.1,2.24,13.6,5.53l-2.71,2.89
		c-2.94-2.79-6.22-4.78-10.95-4.78c-7.72,0-13.51,6.26-13.51,14.31v0.1c0,8.05,5.82,14.38,13.51,14.38c4.78,0,7.92-1.83,11.25-5.03
		l2.6,2.55c-3.64,3.68-7.64,6.13-13.95,6.13C314.61,52.13,307.18,44.2,307.18,34.19"/>
	<polyline class="st2" points="345.5,16.65 370.73,16.65 370.73,20.23 349.44,20.23 349.44,32.14 368.47,32.14 368.47,35.72 
		349.44,35.72 349.44,47.94 370.97,47.94 370.97,51.54 345.5,51.54 345.5,16.65 	"/>
	<path class="st2" d="M173.95,66.21h3.68l15.9,35.15h-4.24l-4.07-9.21h-18.99l-4.14,9.21h-4.05L173.95,66.21 M183.65,88.59
		l-7.92-17.77l-7.96,17.77H183.65z"/>
	<path class="st2" d="M196.82,84.02v-0.09c0-9.58,7.04-18.04,17.5-18.04c5.88,0,9.52,1.68,13,4.64l-2.55,2.98
		c-2.69-2.34-5.68-4-10.62-4c-7.72,0-13.26,6.56-13.26,14.33v0.1c0,8.33,5.35,14.5,13.82,14.5c3.98,0,7.67-1.55,10.06-3.49v-8.66
		h-10.62v-3.54h14.4v13.9c-3.23,2.9-8.12,5.34-14,5.34C203.6,101.97,196.82,93.98,196.82,84.02"/>
	<path class="st2" d="M237.83,66.49h14.98c4.31,0,7.75,1.28,9.94,3.47c1.7,1.69,2.7,4.15,2.7,6.9v0.09c0,5.78-4.01,9.18-9.48,10.17
		l10.72,14.25h-4.85l-10.11-13.55h-9.97v13.55h-3.92V66.49 M252.47,84.28c5.24,0,8.96-2.68,8.96-7.16v-0.11c0-4.31-3.27-6.9-8.9-6.9
		h-10.79v14.16H252.47z"/>
	<path class="st2" d="M272.3,84.02v-0.09c0-9.64,7.23-18.04,17.85-18.04c10.6,0,17.72,8.31,17.72,17.94c0.07,0.04,0.07,0.04,0,0.1
		c0,9.61-7.21,18.04-17.81,18.04C279.43,101.97,272.3,93.65,272.3,84.02 M303.79,84.02v-0.09c0-7.92-5.78-14.43-13.74-14.43
		c-7.98,0-13.67,6.41-13.67,14.33v0.1c0,7.92,5.77,14.41,13.76,14.41C298.12,98.34,303.79,91.96,303.79,84.02z"/>
	<polyline class="st2" points="316.18,66.49 341.28,66.49 341.28,70.12 320.13,70.12 320.13,82.6 339.02,82.6 339.02,86.17 
		320.13,86.17 320.13,101.37 316.18,101.37 316.18,66.49 	"/>
	<polyline class="st2" points="348.9,66.49 374.09,66.49 374.09,70.07 352.81,70.07 352.81,82 371.85,82 371.85,85.57 352.81,85.57 
		352.81,97.8 374.35,97.8 374.35,101.37 348.9,101.37 348.9,66.49 	"/>
	<path class="st2" d="M383.44,66.49h14.98c4.3,0,7.75,1.28,9.93,3.47c1.7,1.69,2.7,4.15,2.7,6.9v0.09c0,5.78-3.99,9.18-9.47,10.17
		l10.7,14.25h-4.82l-10.1-13.55h-9.98v13.55h-3.94V66.49 M398.09,84.28c5.21,0,8.96-2.68,8.96-7.16v-0.11c0-4.31-3.29-6.9-8.93-6.9
		h-10.75v14.16H398.09z"/>
	<polyline class="st2" points="427.57,70.12 415.86,70.12 415.86,66.49 443.25,66.49 443.25,70.12 431.55,70.12 431.55,101.37 
		427.57,101.37 427.57,70.12 	"/>
</g>
</svg>
